<svg width="4000" height="1268" viewBox="0 0 4000 1268" fill="none" xmlns="http://www.w3.org/2000/svg">
<path d="M251.942 3.41016H1012.11V513.093H835.464V523.229C1126.5 588.387 1072.93 1018.43 780.442 1018.43H26.063V513.093H230.223V502.957C88.3245 475.446 0 387.12 0 255.355C0 125.039 112.94 3.41016 251.942 3.41016ZM1781.99 511.645V1018.43H1275.21V511.645H1065.26V3.41016H1978.91V511.645H1781.99ZM2268.31 3.41016H3028.49V513.093H2851.84V523.229C3142.88 588.387 3089.3 1018.43 2796.81 1018.43H2042.43V513.093H2246.59V502.957C2104.69 475.446 2016.36 387.12 2016.36 255.355C2016.36 125.039 2129.3 3.41016 2268.31 3.41016ZM3798.37 511.645V1018.43H3291.6V511.645H3081.65V3.41016H3995.29V511.645H3798.37Z" fill="black"/>
<path d="M2086.67 1239.8C2078.03 1239.8 2070 1238.15 2062.56 1234.85C2055.21 1231.55 2049.36 1227.51 2045 1222.72L2051.53 1195.74C2054.94 1201.91 2059.84 1207.29 2066.23 1211.86C2072.62 1216.44 2079.7 1218.73 2087.46 1218.73C2094.05 1218.73 2099.43 1216.76 2103.57 1212.82C2107.73 1208.78 2109.8 1203.88 2109.8 1198.13C2109.8 1193.67 2108.75 1189.99 2106.61 1187.12C2104.58 1184.25 2102.19 1181.96 2099.43 1180.26C2096.66 1178.45 2094.38 1177.12 2092.57 1176.27L2075.32 1167.65C2071.5 1165.62 2067.44 1163.12 2063.19 1160.14C2058.94 1157.16 2055.32 1153.28 2052.33 1148.49C2049.36 1143.59 2047.86 1137.42 2047.86 1129.97C2047.86 1122.31 2049.63 1115.55 2053.14 1109.7C2056.66 1103.85 2061.6 1099.27 2067.99 1095.97C2074.38 1092.67 2081.76 1091.02 2090.18 1091.02C2098.25 1091.02 2105.43 1092.41 2111.71 1095.17C2118 1097.84 2123.01 1100.66 2126.72 1103.63L2120.35 1130.29C2116.93 1125.29 2112.4 1120.98 2106.77 1117.36C2101.24 1113.64 2095.33 1111.78 2089.05 1111.78C2083.3 1111.78 2078.79 1113.42 2075.48 1116.72C2072.19 1119.92 2070.54 1123.85 2070.54 1128.54C2070.54 1131.84 2071.28 1134.66 2072.76 1137C2074.38 1139.34 2076.28 1141.31 2078.52 1142.9C2080.86 1144.39 2083.15 1145.72 2085.38 1146.89L2102.94 1155.67C2105.38 1156.84 2108.26 1158.49 2111.55 1160.62C2114.97 1162.64 2118.27 1165.25 2121.45 1168.44C2124.66 1171.64 2127.26 1175.52 2129.27 1180.1C2131.41 1184.67 2132.48 1190.15 2132.48 1196.54C2132.48 1204.84 2130.5 1212.29 2126.56 1218.89C2122.74 1225.38 2117.42 1230.49 2110.61 1234.21C2103.79 1237.93 2095.81 1239.8 2086.67 1239.8ZM2164.33 1237.24V1159.66H2144.53V1141.47H2164.8V1109.54H2186.36V1141.47H2207.73V1159.66H2186.83V1237.24H2164.33ZM2265.6 1239.8C2256.24 1239.8 2247.66 1237.56 2239.9 1233.09C2232.13 1228.52 2225.96 1222.4 2221.38 1214.73C2216.8 1207.07 2214.52 1198.61 2214.52 1189.36C2214.52 1179.99 2216.8 1171.53 2221.38 1163.97C2225.96 1156.31 2232.13 1150.25 2239.9 1145.78C2247.66 1141.2 2256.24 1138.91 2265.6 1138.91C2275.08 1138.91 2283.64 1141.2 2291.3 1145.78C2299.06 1150.25 2305.24 1156.31 2309.81 1163.97C2314.39 1171.53 2316.67 1179.99 2316.67 1189.36C2316.67 1198.61 2314.39 1207.07 2309.81 1214.73C2305.24 1222.4 2299.06 1228.52 2291.3 1233.09C2283.64 1237.56 2275.08 1239.8 2265.6 1239.8ZM2265.6 1219.21C2271.03 1219.21 2275.97 1217.88 2280.44 1215.21C2284.91 1212.45 2288.42 1208.83 2290.99 1204.36C2293.63 1199.89 2294.97 1194.89 2294.97 1189.36C2294.97 1183.82 2293.63 1178.82 2290.99 1174.35C2288.42 1169.88 2284.91 1166.31 2280.44 1163.65C2275.97 1160.89 2271.03 1159.5 2265.6 1159.5C2260.17 1159.5 2255.23 1160.89 2250.76 1163.65C2246.29 1166.31 2242.72 1169.88 2240.06 1174.35C2237.51 1178.82 2236.22 1183.82 2236.22 1189.36C2236.22 1194.89 2237.51 1199.89 2240.06 1204.36C2242.72 1208.83 2246.23 1212.45 2250.59 1215.21C2255.06 1217.88 2260.06 1219.21 2265.6 1219.21ZM2382.27 1239.8C2372.8 1239.8 2364.17 1237.56 2356.4 1233.09C2348.64 1228.52 2342.47 1222.4 2337.89 1214.73C2333.31 1207.07 2331.03 1198.61 2331.03 1189.36C2331.03 1179.99 2333.31 1171.53 2337.89 1163.97C2342.47 1156.31 2348.64 1150.25 2356.4 1145.78C2364.17 1141.2 2372.8 1138.91 2382.27 1138.91C2388.96 1138.91 2395.3 1140.08 2401.25 1142.42C2407.33 1144.66 2412.64 1147.85 2417.22 1152L2410.99 1177.06C2408.33 1172.28 2404.57 1168.18 2399.66 1164.77C2394.77 1161.26 2389.13 1159.5 2382.74 1159.5C2377.22 1159.5 2372.15 1160.89 2367.57 1163.65C2363.12 1166.31 2359.55 1169.88 2356.89 1174.35C2354.32 1178.82 2353.05 1183.82 2353.05 1189.36C2353.05 1194.78 2354.32 1199.78 2356.89 1204.36C2359.55 1208.83 2363.12 1212.45 2367.57 1215.21C2372.15 1217.88 2377.22 1219.21 2382.74 1219.21C2389.13 1219.21 2394.77 1217.5 2399.66 1214.1C2404.57 1210.69 2408.33 1206.54 2410.99 1201.65L2417.22 1226.71C2412.64 1230.86 2407.33 1234.1 2401.25 1236.45C2395.3 1238.68 2388.96 1239.8 2382.27 1239.8ZM2497.92 1237.24L2457.22 1184.57L2490.74 1141.47H2515.64L2482.76 1182.65L2525.22 1237.24H2497.92ZM2434.86 1237.24V1084H2457.38V1237.24H2434.86ZM2538.57 1237.24V1084H2561.09V1151.84C2564.6 1147.59 2568.8 1144.39 2573.69 1142.26C2578.59 1140.03 2583.81 1138.91 2589.34 1138.91C2596.15 1138.91 2602.48 1140.56 2608.33 1143.86C2614.18 1147.16 2618.92 1151.95 2622.54 1158.23C2626.16 1164.51 2627.97 1172.12 2627.97 1181.05V1237.24H2605.45V1184.09C2605.45 1177.7 2603.5 1172.01 2599.55 1167.01C2595.71 1162.01 2590.3 1159.5 2583.26 1159.5C2577.52 1159.5 2572.37 1161.53 2567.79 1165.57C2563.32 1169.61 2561.09 1175.63 2561.09 1183.61V1237.24H2538.57ZM2697.27 1239.8C2687.91 1239.8 2679.33 1237.56 2671.57 1233.09C2663.81 1228.52 2657.63 1222.4 2653.05 1214.73C2648.48 1207.07 2646.19 1198.61 2646.19 1189.36C2646.19 1179.99 2648.48 1171.53 2653.05 1163.97C2657.63 1156.31 2663.81 1150.25 2671.57 1145.78C2679.33 1141.2 2687.91 1138.91 2697.27 1138.91C2706.74 1138.91 2715.32 1141.2 2722.97 1145.78C2730.74 1150.25 2736.91 1156.31 2741.49 1163.97C2746.07 1171.53 2748.35 1179.99 2748.35 1189.36C2748.35 1198.61 2746.07 1207.07 2741.49 1214.73C2736.91 1222.4 2730.74 1228.52 2722.97 1233.09C2715.32 1237.56 2706.74 1239.8 2697.27 1239.8ZM2697.27 1219.21C2702.7 1219.21 2707.64 1217.88 2712.11 1215.21C2716.58 1212.45 2720.09 1208.83 2722.65 1204.36C2725.31 1199.89 2726.65 1194.89 2726.65 1189.36C2726.65 1183.82 2725.31 1178.82 2722.65 1174.35C2720.09 1169.88 2716.58 1166.31 2712.11 1163.65C2707.64 1160.89 2702.7 1159.5 2697.27 1159.5C2691.84 1159.5 2686.9 1160.89 2682.43 1163.65C2677.96 1166.31 2674.39 1169.88 2671.73 1174.35C2669.18 1178.82 2667.9 1183.82 2667.9 1189.36C2667.9 1194.89 2669.18 1199.89 2671.73 1204.36C2674.39 1208.83 2677.9 1212.45 2682.27 1215.21C2686.74 1217.88 2691.73 1219.21 2697.27 1219.21ZM2768.6 1237.24V1084H2791.1V1237.24H2768.6ZM2817.14 1237.24V1141.47H2837.58V1153.6C2841.09 1148.7 2845.45 1145.03 2850.67 1142.58C2855.9 1140.14 2861.36 1138.91 2867.12 1138.91C2873.18 1138.91 2878.77 1140.24 2883.88 1142.9C2889.09 1145.56 2893.4 1149.4 2896.8 1154.4C2900.53 1149.29 2905.22 1145.46 2910.85 1142.9C2916.6 1140.24 2922.77 1138.91 2929.36 1138.91C2936.38 1138.91 2942.88 1140.56 2948.84 1143.86C2954.81 1147.05 2959.59 1151.68 2963.21 1157.75C2966.94 1163.81 2968.8 1171.1 2968.8 1179.62V1237.24H2946.29V1182.65C2946.29 1175.73 2944.28 1170.2 2940.22 1166.05C2936.29 1161.79 2931.28 1159.66 2925.22 1159.66C2921.71 1159.66 2918.3 1160.46 2915.01 1162.06C2911.81 1163.65 2909.2 1166.16 2907.17 1169.56C2905.27 1172.86 2904.31 1177.12 2904.31 1182.33V1237.24H2881.63V1182.65C2881.63 1177.97 2880.67 1173.92 2878.77 1170.52C2876.96 1167.01 2874.47 1164.29 2871.26 1162.38C2868.08 1160.46 2864.57 1159.5 2860.73 1159.5C2857.33 1159.5 2853.98 1160.36 2850.67 1162.06C2847.48 1163.65 2844.82 1166.1 2842.68 1169.4C2840.67 1172.7 2839.66 1177.01 2839.66 1182.33V1237.24H2817.14ZM3002.43 1239.8C2998.29 1239.8 2994.77 1238.36 2991.9 1235.49C2989.02 1232.61 2987.59 1229.1 2987.59 1224.95C2987.59 1220.69 2989.02 1217.18 2991.9 1214.42C2994.77 1211.54 2998.29 1210.11 3002.43 1210.11C3006.79 1210.11 3010.36 1211.54 3013.13 1214.42C3016 1217.29 3017.43 1220.8 3017.43 1224.95C3017.43 1229.1 3016 1232.61 3013.13 1235.49C3010.36 1238.36 3006.79 1239.8 3002.43 1239.8ZM3077.05 1239.8C3068.44 1239.8 3060.4 1238.15 3052.95 1234.85C3045.6 1231.55 3039.75 1227.51 3035.39 1222.72L3041.92 1195.74C3045.34 1201.91 3050.23 1207.29 3056.62 1211.86C3063.01 1216.44 3070.09 1218.73 3077.85 1218.73C3084.44 1218.73 3089.81 1216.76 3093.98 1212.82C3098.12 1208.78 3100.2 1203.88 3100.2 1198.13C3100.2 1193.67 3099.14 1189.99 3097 1187.12C3094.97 1184.25 3092.58 1181.96 3089.81 1180.26C3087.05 1178.45 3084.76 1177.12 3082.95 1176.27L3065.72 1167.65C3061.89 1165.62 3057.83 1163.12 3053.58 1160.14C3049.33 1157.16 3045.71 1153.28 3042.74 1148.49C3039.75 1143.59 3038.27 1137.42 3038.27 1129.97C3038.27 1122.31 3040.02 1115.55 3043.53 1109.7C3047.05 1103.85 3051.99 1099.27 3058.38 1095.97C3064.76 1092.67 3072.15 1091.02 3080.57 1091.02C3088.66 1091.02 3095.84 1092.41 3102.1 1095.17C3108.38 1097.84 3113.4 1100.66 3117.11 1103.63L3110.74 1130.29C3107.33 1125.29 3102.81 1120.98 3097.16 1117.36C3091.62 1113.64 3085.72 1111.78 3079.44 1111.78C3073.71 1111.78 3069.18 1113.42 3065.87 1116.72C3062.57 1119.92 3060.93 1123.85 3060.93 1128.54C3060.93 1131.84 3061.67 1134.66 3063.15 1137C3064.76 1139.34 3066.67 1141.31 3068.91 1142.9C3071.24 1144.39 3073.54 1145.72 3075.77 1146.89L3093.33 1155.67C3095.79 1156.84 3098.65 1158.49 3101.96 1160.62C3105.36 1162.64 3108.66 1165.25 3111.84 1168.44C3115.05 1171.64 3117.65 1175.52 3119.68 1180.1C3121.8 1184.67 3122.86 1190.15 3122.86 1196.54C3122.86 1204.84 3120.89 1212.29 3116.96 1218.89C3113.13 1225.38 3107.81 1230.49 3101 1234.21C3094.18 1237.93 3086.19 1239.8 3077.05 1239.8ZM3154.72 1237.24V1159.66H3134.92V1141.47H3155.19V1109.54H3176.75V1141.47H3198.14V1159.66H3177.22V1237.24H3154.72ZM3252.09 1239.8C3245.38 1239.8 3239.1 1238.15 3233.25 1234.85C3227.39 1231.55 3222.61 1226.76 3218.88 1220.48C3215.26 1214.2 3213.45 1206.6 3213.45 1197.66V1141.47H3235.97V1194.62C3235.97 1201.11 3237.89 1206.86 3241.71 1211.86C3245.65 1216.76 3251.14 1219.21 3258.16 1219.21C3263.9 1219.21 3269 1217.13 3273.47 1212.98C3278.05 1208.83 3280.35 1202.87 3280.35 1195.1V1141.47H3302.85V1237.24H3282.25V1224.47C3278.74 1229.48 3274.32 1233.31 3269 1235.97C3263.79 1238.52 3258.16 1239.8 3252.09 1239.8ZM3370.88 1239.16C3362.05 1239.16 3354.01 1236.92 3346.77 1232.45C3339.53 1227.99 3333.74 1221.97 3329.38 1214.42C3325.11 1206.86 3322.99 1198.51 3322.99 1189.36C3322.99 1180.2 3325.11 1171.85 3329.38 1164.29C3333.74 1156.74 3339.53 1150.73 3346.77 1146.26C3354.01 1141.79 3362.05 1139.55 3370.88 1139.55C3376.51 1139.55 3381.78 1140.51 3386.68 1142.42C3391.68 1144.23 3396.15 1146.79 3400.09 1150.09V1084H3422.59V1237.24H3402.65V1226.23C3398.7 1230.27 3393.96 1233.47 3388.44 1235.81C3383.01 1238.04 3377.14 1239.16 3370.88 1239.16ZM3373.6 1219.05C3378.92 1219.05 3383.75 1217.72 3388.11 1215.06C3392.58 1212.39 3396.09 1208.83 3398.65 1204.36C3401.31 1199.89 3402.65 1194.89 3402.65 1189.36C3402.65 1183.93 3401.31 1178.98 3398.65 1174.51C3396.09 1169.93 3392.64 1166.31 3388.28 1163.65C3383.91 1160.99 3379.01 1159.66 3373.6 1159.66C3368.28 1159.66 3363.37 1160.99 3358.9 1163.65C3354.54 1166.31 3351.03 1169.88 3348.37 1174.35C3345.81 1178.82 3344.53 1183.82 3344.53 1189.36C3344.53 1194.78 3345.81 1199.78 3348.37 1204.36C3351.03 1208.83 3354.54 1212.39 3358.9 1215.06C3363.26 1217.72 3368.17 1219.05 3373.6 1219.05ZM3495.95 1239.8C3485.63 1239.8 3476.42 1237.56 3468.33 1233.09C3460.24 1228.62 3453.91 1222.5 3449.34 1214.73C3444.87 1206.97 3442.63 1198.19 3442.63 1188.4C3442.63 1179.03 3444.82 1170.62 3449.18 1163.18C3453.65 1155.73 3459.61 1149.82 3467.06 1145.46C3474.61 1141.09 3482.92 1138.91 3491.95 1138.91C3501.11 1138.91 3509.36 1141.04 3516.69 1145.3C3524.15 1149.55 3530.05 1155.35 3534.41 1162.7C3538.77 1169.93 3540.96 1178.18 3540.96 1187.44V1195.9H3480.46C3477.8 1195.9 3475.14 1195.79 3472.48 1195.58C3469.81 1195.26 3467.15 1194.89 3464.49 1194.46C3465.78 1201.81 3469.29 1207.93 3475.05 1212.82C3480.89 1217.72 3488.02 1220.16 3496.42 1220.16C3502.5 1220.16 3508.02 1218.89 3513.04 1216.33C3518.03 1213.67 3522.12 1210.27 3525.33 1206.12L3530.76 1228.46C3526.07 1232.19 3520.75 1235.01 3514.79 1236.92C3508.82 1238.84 3502.54 1239.8 3495.95 1239.8ZM3464.02 1180.1C3469.56 1179.03 3475.05 1178.5 3480.46 1178.5H3504.73C3507.39 1178.5 3509.94 1178.61 3512.38 1178.82C3514.94 1179.03 3517.4 1179.3 3519.73 1179.62C3518.14 1173.13 3514.79 1167.86 3509.67 1163.81C3504.67 1159.66 3498.72 1157.59 3491.81 1157.59C3485.09 1157.59 3479.19 1159.72 3474.09 1163.97C3468.96 1168.23 3465.62 1173.61 3464.02 1180.1ZM3560.17 1237.24V1141.47H3580.6V1154.4C3584.11 1149.4 3588.48 1145.56 3593.69 1142.9C3599.01 1140.24 3604.76 1138.91 3610.94 1138.91C3617.74 1138.91 3624.08 1140.56 3629.92 1143.86C3635.79 1147.16 3640.51 1151.95 3644.13 1158.23C3647.75 1164.51 3649.56 1172.12 3649.56 1181.05V1237.24H3627.05V1184.09C3627.05 1177.7 3625.09 1172.01 3621.14 1167.01C3617.31 1162.01 3611.9 1159.5 3604.87 1159.5C3599.12 1159.5 3593.96 1161.53 3589.38 1165.57C3584.91 1169.61 3582.68 1175.63 3582.68 1183.61V1237.24H3560.17ZM3681.56 1237.24V1159.66H3661.76V1141.47H3682.03V1109.54H3703.59V1141.47H3724.98V1159.66H3704.08V1237.24H3681.56Z" fill="black"/>
<path d="M3995.29 1054.63H3796.2V1253.73H3995.29V1054.63Z" fill="black"/>
</svg>
